<svg xmlns="http://www.w3.org/2000/svg" viewBox="0 0 100 100">
  <circle cx="50" cy="50" r="48" fill="#2563EB"/>
  <path d="M50 22c-8 0-14 4-17 10-3 6-2 14 1 22 1 3 2 6 2 9 0 5-2 9-5 12-2 2-4 4-3 6 1 2 4 3 7 2 4-1 8-5 10-11 1 6 5 10 9 11 3 1 6 0 7-2 1-2-1-4-3-6-3-3-5-7-5-12 0-3 1-6 2-9 3-8 4-16 1-22-3-6-9-10-17-10z" fill="white"/>
  <path d="M40 34c-2 1-4 4-4 8" stroke="#2563EB" strokeWidth="2" fill="none" strokeLinecap="round"/>
  <path d="M50 30c-1 0-2 2-2 5s1 6 2 6" stroke="#2563EB" strokeWidth="2" fill="none" strokeLinecap="round"/>
  <path d="M60 34c2 1 4 4 4 8" stroke="#2563EB" strokeWidth="2" fill="none" strokeLinecap="round"/>
</svg>
